# xmcd
#
# Track frame offsets:
#	150
#	14217
#	24153
#	36026
#	50571
#	62014
#	80065
#	93199
#	110785
#	126890
#	139358
#	151189
#	162737
#	176615
#
# Disc length: 2495 seconds
# Revision: 1
# Processed by: cddbd v1.5.2PL0 Copyright (c) Steve Scherf et al.
# Submitted via: dBpowerAMP V12.0
#
DISCID=c109bd0e
DTITLE=Dale Watson - El Rancho Azul
DYEAR=2013
DGENRE=Country
TTITLE0=I Lie When I Drink
TTITLE1=Where Do You Want It
TTITLE2=I Drink to Remember
TTITLE3=Cowboy Boots
TTITLE4=We’re Gonna Get Married
TTITLE5=Daughter’s Wedding Song
TTITLE6=Quick Quick Slow Slow
TTITLE7=Slow Quick Quick
TTITLE8=Give Me More Kisses
TTITLE9=Drink Drink Drink
TTITLE10=I Can’t Be Satisfied
TTITLE11=I Hate to Drink Alone
TTITLE12=Smokey Old Bar
TTITLE13=Thanks to Tequila
EXTD=
EXTT0=
EXTT1=
EXTT2=
EXTT3=
EXTT4=
EXTT5=
EXTT6=
EXTT7=
EXTT8=
EXTT9=
EXTT10=
EXTT11=
EXTT12=
EXTT13=
PLAYORDER=
